<svg xmlns="http://www.w3.org/2000/svg" xmlns:xlink="http://www.w3.org/1999/xlink" viewBox="0 0 906.47 900"><defs><style>.cls-1{isolation:isolate;}.cls-2{mix-blend-mode:color;fill:url(#Gradiente_sem_nome_26);}.cls-3{fill:#f7931e;}</style><radialGradient id="Gradiente_sem_nome_26" cx="450" cy="450" r="450" gradientUnits="userSpaceOnUse"><stop offset="0.01" stop-color="#1b1464"/><stop offset="0.15" stop-color="#1b1464"/><stop offset="1" stop-color="#1b1464"/></radialGradient></defs><title>logo</title><g class="cls-1"><g id="Camada_2" data-name="Camada 2"><g id="Camada_1-2" data-name="Camada 1"><circle class="cls-2" cx="450" cy="450" r="450"/><path class="cls-3" d="M785.88,801.88l-305-17.68c-6.14,25.51-28.29,27-30.86,27.09-2.57-.09-24.72-1.58-30.86-27.09l-305,17.68s39.21-20.57,57.28-52.93c0,0-61.11,54.34-106.5,72.06h768c-45.39-17.71-104.28-72.06-104.28-72.06C746.67,781.31,785.88,801.88,785.88,801.88Z"/><path class="cls-3" d="M262.68,741.94c63.51-17.41,119.51-35.74,151-7.88,13.9,12.28,22.42,19.65,28.49,24.1a44.32,44.32,0,0,0,7.78,4.76,44.32,44.32,0,0,0,7.78-4.76c6.08-4.44,14.59-11.81,28.49-24.1,31.53-27.86,87.53-9.53,151,7.88s89.92,13.2,89.92,13.2c-39.38.46-128.16-34.83-174.83-41.2-35.72-4.88-56.23-.23-79.11,23.22a89.43,89.43,0,0,1-15.52,13q-1.21.77-2.33,1.41a42.4,42.4,0,0,1-5.45,2.66,42.23,42.23,0,0,1-5.45-2.66q-1.12-.64-2.33-1.41a89.42,89.42,0,0,1-15.52-13c-22.88-23.45-43.38-28.1-79.11-23.22-46.67,6.37-135.45,41.66-174.83,41.2C172.76,755.15,199.17,759.36,262.68,741.94Z"/><path class="cls-3" d="M413.72,716c13.9,12.28,22.42,19.65,28.49,24.1a44.32,44.32,0,0,0,7.78,4.76,44.32,44.32,0,0,0,7.78-4.76c6.08-4.44,14.59-11.81,28.49-24.1,31.53-27.86,87.53-9.53,151,7.88s89.92,13.2,89.92,13.2c-39.38.46-128.16-34.83-174.83-41.2-35.72-4.88-56.23-.23-79.11,23.22a89.42,89.42,0,0,1-15.52,13q-1.21.77-2.33,1.41A42.41,42.41,0,0,1,450,736.2a42.25,42.25,0,0,1-5.45-2.66q-1.12-.64-2.33-1.41a89.41,89.41,0,0,1-15.52-13c-22.88-23.45-43.38-28.1-79.11-23.22-46.67,6.37-135.45,41.66-174.83,41.2,0,0,26.41,4.21,89.92-13.2S382.2,688.14,413.72,716Z"/><path class="cls-3" d="M476.46,768.89c-11.61,11.9-20.61,17-26.47,19.15-5.86-2.16-14.86-7.25-26.47-19.15-25.21-25.84-47.81-31-87.18-25.59-51.43,7-149.28,45.91-192.68,45.41,0,0,29.1,4.64,99.1-14.55s131.72-39.39,166.47-8.69c16.57,14.64,26.2,23,33,27.69a41.18,41.18,0,0,0,7.78,4.46,41.18,41.18,0,0,0,7.78-4.46c6.79-4.74,16.42-13,33-27.69,34.75-30.7,96.47-10.5,166.47,8.69s99.1,14.55,99.1,14.55c-43.4.5-141.25-38.39-192.68-45.41C524.28,737.92,501.68,743,476.46,768.89Z"/><path class="cls-3" d="M251.86,758.94c67-18.38,126.14-37.72,159.42-8.32,15.35,13.56,24.47,21.44,30.94,26.05a42.55,42.55,0,0,0,7.78,4.6,42.6,42.6,0,0,0,7.78-4.6c6.47-4.61,15.59-12.49,30.94-26.05,33.28-29.4,92.38-10.06,159.42,8.32S743,772.88,743,772.88c-41.57.48-135.27-36.76-184.53-43.49-37.7-5.15-59.35-.24-83.49,24.51-10.91,11.18-19.41,16.08-25,18.21-5.61-2.14-14.11-7-25-18.21-24.15-24.75-45.79-29.66-83.49-24.51-49.25,6.73-143,44-184.53,43.49C157,772.88,184.83,777.32,251.86,758.94Z"/><path class="cls-3" d="M906.46,400.39c-34.41,66.28-68.83,62.45-68.83,62.45C931.2,439.15,898.81,227,898.81,227,909,350.68,844,396.56,844,396.56,963.82,261.45,759.88,77.91,759.88,77.91c137.66,348-251.58,433.25-251.58,433.25,10,55.11-20.53,57.68-20.53,57.68,3.34,18,40.58,57.17,40.58,57.17-9.55-1.55-56.81-54.59-79.72-68.5s-28.64-20.6-38.19-25.75c-21.48-9.27-24.82,16-24.82,16s-5.25-1.55-5.25-22.15,25.78-18,25.78-18c9.47-11.28,35.26-7.12,50.6-3.37C326.54,463.42,131.51,278,131.51,278c0,71.07,83.22,109.53,83.22,109.53-22.91-4.12-67.92-31.78-67.92-31.78,16.23,54.59,99.43,73,99.43,73C233.82,434.94,185,419.5,185,419.5,217.5,482.34,296.83,567.81,380.37,575s112.18,52.53,112.18,52.53c-40.1,35-41.05,84.38-41.05,84.38,62.39-96.14,254.85,12.2,254.85,12.2-27.8-48.63-112.6-104.82-112.6-104.82s19.9,13.63,169-49.44C910.29,507.45,906.46,400.39,906.46,400.39Z"/><path class="cls-3" d="M456.75,504.18q6.06,1.9,11.93,3.37S463.83,505.91,456.75,504.18Z"/></g></g></g></svg>